<?xml version="1.0" encoding="UTF-8"?>
<svg version="1.1" xmlns="http://www.w3.org/2000/svg" width="342" height="148">
<path d="M0 0 C14.75903299 11.62806675 25.22589614 28.49255406 28.25 47.1875 C30.14450195 70.38789424 25.676457 89.97324364 10.8203125 108.2109375 C-1.07925274 121.99128509 -18.10030453 131.91909821 -36.47607422 133.40844727 C-59.40277585 134.32528174 -78.65400204 129.89422341 -96.26171875 114.58203125 C-110.9485358 100.44856367 -119.59943193 82.76912807 -120.21875 62.34130859 C-120.43399359 40.61852197 -113.96762579 22.00092191 -98.75 6.1875 C-71.65843718 -19.88334459 -30.11508893 -22.76095037 0 0 Z M-64.08984375 18.41796875 C-69.13437378 23.79484429 -70.1916549 29.29329782 -70.0859375 36.4609375 C-69.26003788 43.16416931 -66.07931968 48.52256774 -60.8125 52.6875 C-54.93273009 56.57803934 -49.73200127 57.87425422 -42.75 57.1875 C-40.53249092 55.6482536 -40.53249092 55.6482536 -39.75 53.1875 C-39.74364754 50.55212492 -39.74364754 50.55212492 -40.75 48.1875 C-43.71091561 45.94478457 -43.71091561 45.94478457 -47.625 45.375 C-51.90329133 44.34285237 -54.12698911 42.84381822 -56.75 39.1875 C-58.1144866 35.07709005 -57.99863753 32.01111182 -56.75 27.875 C-54.08572812 24.29488466 -52.03535871 23.3817803 -47.75 22.1875 C-43.0814319 21.89516082 -40.4836143 22.59436504 -36.8125 25.5625 C-33.64480757 29.59410855 -33.62207495 32.58301981 -33.6171875 37.5703125 C-33.61589844 38.81941406 -33.61460938 40.06851563 -33.61328125 41.35546875 C-33.61714844 42.66128906 -33.62101562 43.96710937 -33.625 45.3125 C-33.61919922 47.28283203 -33.61919922 47.28283203 -33.61328125 49.29296875 C-33.61457031 50.53949219 -33.61585937 51.78601563 -33.6171875 53.0703125 C-33.61831543 54.21902832 -33.61944336 55.36774414 -33.62060547 56.55126953 C-33.75 59.1875 -33.75 59.1875 -34.75 60.1875 C-36.53951946 60.30132103 -38.32977317 60.40857422 -40.12158203 60.47753906 C-48.83746584 60.81552965 -56.54383353 61.31442575 -63.36328125 67.5546875 C-68.16776146 73.21179377 -70.54996355 79.3977126 -70.09765625 86.80859375 C-68.96857603 94.53454718 -65.79209193 99.26769728 -59.75 104.1875 C-54.04422841 108.07779881 -47.07773649 108.84153092 -40.3203125 107.8203125 C-33.27042614 105.84439279 -28.04906218 101.37652173 -23.8125 95.5 C-21.74607231 91.00248092 -21.3877804 87.16801949 -21.75 82.1875 C-22.64757556 80.03969923 -22.64757556 80.03969923 -24.75 79.1875 C-28.39541845 79.42227199 -28.39541845 79.42227199 -31.75 80.1875 C-32.018125 81.21875 -32.28625 82.25 -32.5625 83.3125 C-35.20313407 92.24724816 -35.20313407 92.24724816 -39.9375 95.125 C-44.30276468 96.34154917 -47.44470009 96.64065154 -51.75 95.1875 C-55.35133296 92.65890452 -56.97281431 90.52043086 -57.75 86.25 C-58.01104673 82.18074208 -57.11131066 79.57204528 -54.75 76.1875 C-49.56726727 71.92771967 -43.50409278 72.75270051 -37.14257812 72.74804688 C-31.54763555 72.6265088 -28.11277497 72.0586947 -23.75 68.1875 C-21.23891171 64.53731133 -21.44381084 60.69310704 -21.44921875 56.421875 C-21.44279106 55.29353241 -21.44279106 55.29353241 -21.43623352 54.14239502 C-21.43049975 52.55213423 -21.42998294 50.96184722 -21.43432617 49.37158203 C-21.43747132 46.95949492 -21.41406844 44.54865303 -21.38867188 42.13671875 C-21.38639703 40.58593903 -21.38569624 39.03515605 -21.38671875 37.484375 C-21.377509 36.77263123 -21.36829926 36.06088745 -21.35881042 35.32757568 C-21.4134496 29.29933282 -22.73798681 23.94001198 -26.36328125 18.98046875 C-38.02983296 7.95758886 -52.26852027 7.25469111 -64.08984375 18.41796875 Z " fill="#0EB84C" transform="translate(119.75,14.8125)"/>
<path d="M0 0 C0.8671875 2.02734375 0.8671875 2.02734375 1 4 C-0.4375 6.25 -0.4375 6.25 -2 8 C-5.16827366 7.50495724 -7.92709818 6.65336612 -10.875 5.4375 C-15.95293122 3.49986835 -20.00015907 3.29417379 -25.1875 5.125 C-29.38040349 7.92026899 -31.42162539 11.26487618 -33 16 C-33.49975702 22.49684132 -32.2394505 27.34065253 -28 32.375 C-24.68156498 35.07122845 -21.75498305 35.15921244 -17.625 35.1875 C-16.68914062 35.20167969 -15.75328125 35.21585938 -14.7890625 35.23046875 C-11.83881846 34.98668108 -9.67635888 34.23112508 -7 33 C-7 30.69 -7 28.38 -7 26 C-7.68707031 25.96261719 -8.37414062 25.92523438 -9.08203125 25.88671875 C-9.98308594 25.82097656 -10.88414062 25.75523438 -11.8125 25.6875 C-12.70582031 25.62949219 -13.59914062 25.57148437 -14.51953125 25.51171875 C-17.32548644 24.9328524 -18.3164231 24.28606094 -20 22 C-19.875 19.9375 -19.875 19.9375 -19 18 C-15.40772276 15.6051485 -12.7176193 15.63296763 -8.5625 15.625 C-7.24378906 15.59664062 -5.92507812 15.56828125 -4.56640625 15.5390625 C-1 16 -1 16 1.4375 17.52734375 C3.59365775 20.9394634 3.62313287 24.02489629 3.5625 27.9375 C3.59827148 28.99227539 3.59827148 28.99227539 3.63476562 30.06835938 C3.62394793 33.91585251 3.15770725 35.79603939 0.7890625 38.859375 C-6.13129238 44.17079583 -14.39111987 46.13017713 -23 45 C-29.52130353 43.70430587 -34.62737869 41.06542624 -39 36 C-43.41371215 29.15807539 -45.16683985 21.9412488 -43.57421875 13.83203125 C-41.63944759 6.93569971 -37.96189113 1.34728481 -31.71875 -2.3515625 C-29.50560508 -3.37698631 -27.3141087 -4.23303826 -25 -5 C-24.195625 -5.268125 -23.39125 -5.53625 -22.5625 -5.8125 C-14.4077616 -6.40918818 -6.67060005 -4.99958105 0 0 Z " fill="#222222" transform="translate(216,54)"/>
<path d="M0 0 C2.4375 0.875 2.4375 0.875 4.4375 3.875 C4.72460938 6.90600586 4.72460938 6.90600586 4.78125 10.58984375 C4.7958728 11.24199356 4.81049561 11.89414337 4.82556152 12.5660553 C4.87200199 14.64814155 4.90622963 16.73013398 4.9375 18.8125 C4.97873009 21.55112964 5.03244174 24.28909818 5.09375 27.02734375 C5.11244141 28.24413818 5.13113281 29.46093262 5.15039062 30.71459961 C5.42213301 33.70584554 5.794974 35.39837876 7.4375 37.875 C10.26909311 39.77072759 12.56610367 40.14809176 15.9375 40.125 C16.6903125 40.13015625 17.443125 40.1353125 18.21875 40.140625 C20.76696266 39.83555729 22.3034562 39.30372424 24.4375 37.875 C26.82509767 34.31195326 26.7048978 31.01515763 26.74609375 26.80859375 C26.77123944 25.42252158 26.79663766 24.03645397 26.82226562 22.65039062 C26.85106488 20.47567794 26.8750985 18.301044 26.89379883 16.1262207 C26.91542967 14.01994729 26.95484591 11.91456087 26.99609375 9.80859375 C27.00954834 8.55103271 27.02300293 7.29347168 27.03686523 5.99780273 C27.4375 2.875 27.4375 2.875 28.80493164 0.93383789 C30.4375 -0.125 30.4375 -0.125 33 0 C35.4375 0.875 35.4375 0.875 37.4375 3.875 C37.69628906 6.45947266 37.69628906 6.45947266 37.703125 9.5390625 C37.70699219 11.22322266 37.70699219 11.22322266 37.7109375 12.94140625 C37.70320313 14.11574219 37.69546875 15.29007813 37.6875 16.5 C37.69910156 18.22669922 37.69910156 18.22669922 37.7109375 19.98828125 C37.69034405 29.01851 37.57741215 37.73942642 31.4375 44.875 C25.1570355 49.44261055 19.02995367 50.57430494 11.4375 49.875 C6.36263223 48.64253211 2.16166272 46.59916272 -1.5625 42.875 C-5.94826887 35.35653907 -5.77889741 28.4036349 -5.80273438 19.9206543 C-5.81248449 17.81584808 -5.84355537 15.71200109 -5.875 13.60742188 C-5.88152661 12.26823494 -5.88677843 10.92904106 -5.890625 9.58984375 C-5.8999707 8.37417725 -5.90931641 7.15851074 -5.91894531 5.90600586 C-5.5625 2.875 -5.5625 2.875 -4.20214844 0.94750977 C-2.5625 -0.125 -2.5625 -0.125 0 0 Z " fill="#1F1F1F" transform="translate(233.5625,49.125)"/>
<path d="M0 0 C3.47352187 1.18608064 3.85915476 2.66090911 5.5625 5.875 C6.57216041 8.13618124 7.54165875 10.41552726 8.48046875 12.70703125 C8.87363029 13.6619471 8.87363029 13.6619471 9.2747345 14.63615417 C10.10359795 16.65174416 10.926877 18.6695599 11.75 20.6875 C12.31408444 22.06200032 12.87853391 23.4363509 13.44335938 24.81054688 C14.82063224 28.16364311 16.19290937 31.51875741 17.5625 34.875 C21.46860606 26.46634961 25.01325679 17.95057174 28.43164062 9.33398438 C28.9972168 7.92922852 28.9972168 7.92922852 29.57421875 6.49609375 C29.90897217 5.6548999 30.24372559 4.81370605 30.58862305 3.94702148 C31.5625 1.875 31.5625 1.875 33.5625 -0.125 C36.0625 -0.375 36.0625 -0.375 38.5625 -0.125 C39.2225 0.535 39.8825 1.195 40.5625 1.875 C40.26768198 7.59791137 38.38039573 12.3038332 36.10546875 17.51171875 C35.76123367 18.31358109 35.4169986 19.11544342 35.06233215 19.94160461 C34.33606835 21.62671765 33.60549662 23.30997989 32.87084961 24.99145508 C31.75124569 27.5596426 30.65124622 30.13562227 29.55273438 32.71289062 C28.84231023 34.35467101 28.13075973 35.99596456 27.41796875 37.63671875 C27.09177048 38.40344406 26.7655722 39.17016937 26.42948914 39.96012878 C23.09245261 47.52183288 23.09245261 47.52183288 19.5625 49.875 C16.49633789 49.94384766 16.49633789 49.94384766 13.5625 48.875 C11.90795898 46.69287109 11.90795898 46.69287109 10.62109375 43.7734375 C10.12722168 42.68514648 9.63334961 41.59685547 9.12451172 40.47558594 C8.35131592 38.6932959 8.35131592 38.6932959 7.5625 36.875 C6.99693205 35.63944398 6.42802413 34.40541191 5.85595703 33.17285156 C4.36941349 29.95740956 2.92586865 26.72501401 1.50073242 23.48193359 C0.91088544 22.1470081 0.31438576 20.81500468 -0.28833008 19.48583984 C-1.17452224 17.53064714 -2.04042217 15.56755401 -2.90234375 13.6015625 C-3.414021 12.45252441 -3.92569824 11.30348633 -4.45288086 10.11962891 C-5.54309215 6.52704076 -5.49882017 4.45418569 -4.4375 0.875 C-2.4375 -0.125 -2.4375 -0.125 0 0 Z " fill="#292929" transform="translate(283.4375,49.125)"/>
<path d="M0 0 C2.5 0.25 2.5 0.25 4.5 2.25 C4.75396729 4.1854248 4.75396729 4.1854248 4.75878906 6.57617188 C4.76509338 7.47049927 4.77139771 8.36482666 4.77789307 9.28625488 C4.7738446 10.25397827 4.76979614 11.22170166 4.765625 12.21875 C4.76753845 13.20999878 4.7694519 14.20124756 4.77142334 15.22253418 C4.77278585 17.32072198 4.76908482 19.41891819 4.76074219 21.51708984 C4.75004371 24.73684546 4.76063536 27.95604308 4.7734375 31.17578125 C4.77211592 33.21093874 4.76955355 35.24609588 4.765625 37.28125 C4.76967346 38.24897339 4.77372192 39.21669678 4.77789307 40.21374512 C4.77158875 41.10807251 4.76528442 42.0023999 4.75878906 42.92382812 C4.75640228 44.10724792 4.75640228 44.10724792 4.75396729 45.3145752 C4.5 47.25 4.5 47.25 2.5 49.25 C0 49.5 0 49.5 -2.5 49.25 C-4.92386345 46.82613655 -4.75210208 46.23938588 -4.75878906 42.92382812 C-4.76509338 42.02950073 -4.77139771 41.13517334 -4.77789307 40.21374512 C-4.7738446 39.24602173 -4.76979614 38.27829834 -4.765625 37.28125 C-4.76753845 36.29000122 -4.7694519 35.29875244 -4.77142334 34.27746582 C-4.77278585 32.17927802 -4.76908482 30.08108181 -4.76074219 27.98291016 C-4.75004371 24.76315454 -4.76063536 21.54395692 -4.7734375 18.32421875 C-4.77211592 16.28906126 -4.76955355 14.25390412 -4.765625 12.21875 C-4.77169769 10.76716492 -4.77169769 10.76716492 -4.77789307 9.28625488 C-4.77158875 8.39192749 -4.76528442 7.4976001 -4.75878906 6.57617188 C-4.75719788 5.78722534 -4.75560669 4.99827881 -4.75396729 4.1854248 C-4.33609543 1.00092194 -3.08130132 0.30813013 0 0 Z " fill="#282828" transform="translate(337.5,48.75)"/>
<path d="M0 0 C1.67542976 0.28604898 3.34385343 0.61781233 5 1 C5.07477218 5.12589075 5.12889223 9.25151308 5.16479492 13.37792969 C5.17977914 14.77839031 5.20017379 16.17880483 5.22631836 17.57910156 C5.36596427 25.25688843 5.44895049 31.97536592 2 39 C1.01 39 0.02 39 -1 39 C-0.34 37.68 0.32 36.36 1 35 C0.01 34.34 -0.98 33.68 -2 33 C-2.20846486 30.51976814 -2.23243683 28.30859524 -2.109375 25.83984375 C-2.08530579 25.13477188 -2.06123657 24.42970001 -2.03643799 23.70326233 C-1.98276228 22.21262675 -1.9217559 20.72223988 -1.85400391 19.23217773 C-1.75027298 16.94352277 -1.66807629 14.65488919 -1.58984375 12.36523438 C-1.53510843 10.91922281 -1.47916017 9.47325654 -1.421875 8.02734375 C-1.39575134 7.33881821 -1.36962769 6.65029266 -1.3427124 5.94090271 C-1.11734359 1.11734359 -1.11734359 1.11734359 0 0 Z " fill="#2A2A2A" transform="translate(264,51)"/>
<path d="M0 0 C2.5625 0.875 2.5625 0.875 4.25 3.0625 C5.59860745 5.95237311 6.64007088 8.82388829 7.5625 11.875 C5.9125 12.205 4.2625 12.535 2.5625 12.875 C1.65169573 15.35694162 1.45959906 16.56844096 2.3125 19.109375 C2.725 19.93953125 3.1375 20.7696875 3.5625 21.625 C4.02011719 22.57890625 4.47773438 23.5328125 4.94921875 24.515625 C5.74779297 26.17851563 5.74779297 26.17851563 6.5625 27.875 C7.85639101 30.69828244 9.11869627 33.53482868 10.375 36.375 C10.68888672 37.06948242 11.00277344 37.76396484 11.32617188 38.47949219 C12.63980845 41.44609717 13.5625 43.59340026 13.5625 46.875 C15.5425 47.205 17.5225 47.535 19.5625 47.875 C19.5625 48.535 19.5625 49.195 19.5625 49.875 C16.74633789 49.69384766 16.74633789 49.69384766 13.5625 48.875 C11.90795898 46.69287109 11.90795898 46.69287109 10.62109375 43.7734375 C10.12722168 42.68514648 9.63334961 41.59685547 9.12451172 40.47558594 C8.35131592 38.6932959 8.35131592 38.6932959 7.5625 36.875 C6.99693205 35.63944398 6.42802413 34.40541191 5.85595703 33.17285156 C4.36941349 29.95740956 2.92586865 26.72501401 1.50073242 23.48193359 C0.91088544 22.1470081 0.31438576 20.81500468 -0.28833008 19.48583984 C-1.17452224 17.53064714 -2.04042217 15.56755401 -2.90234375 13.6015625 C-3.414021 12.45252441 -3.92569824 11.30348633 -4.45288086 10.11962891 C-5.54309215 6.52704076 -5.49882017 4.45418569 -4.4375 0.875 C-2.4375 -0.125 -2.4375 -0.125 0 0 Z " fill="#1C1C1C" transform="translate(283.4375,49.125)"/>
<path d="M0 0 C2.5 0.25 2.5 0.25 4.5 2.25 C4.20806396 7.99231823 2.30012242 12.7018369 0.0078125 17.921875 C-0.33879425 18.72610901 -0.685401 19.53034302 -1.04251099 20.35894775 C-1.77305208 22.04822784 -2.50781748 23.73568674 -3.24658203 25.42138672 C-4.37552265 28.00119434 -5.48743125 30.58787277 -6.59765625 33.17578125 C-7.31149728 34.820748 -8.0263077 36.46529449 -8.7421875 38.109375 C-9.07354706 38.8812616 -9.40490662 39.65314819 -9.74630737 40.44842529 C-10.06318512 41.16637268 -10.38006287 41.88432007 -10.70654297 42.62402344 C-10.98110321 43.25354919 -11.25566345 43.88307495 -11.5385437 44.53167725 C-12.61398506 46.45371505 -13.883439 47.7668402 -15.5 49.25 C-12.74256038 40.24631722 -8.86999582 31.76028042 -5.0402832 23.17651367 C-0.46556154 12.99056269 -0.46556154 12.99056269 2.5 2.25 C0.10529121 2.02788709 0.10529121 2.02788709 -2.5 3.25 C-4.2734297 6.10471002 -5.31207499 9.21939091 -6.4375 12.375 C-6.94627686 13.7204187 -6.94627686 13.7204187 -7.46533203 15.09301758 C-8.15794213 16.92483615 -8.84284488 18.75958735 -9.52001953 20.59716797 C-10.92356836 24.39661032 -12.39022976 28.16922328 -13.875 31.9375 C-14.33648437 33.13761719 -14.79796875 34.33773437 -15.2734375 35.57421875 C-16.5 38.25 -16.5 38.25 -18.5 39.25 C-18.5 38.59 -18.5 37.93 -18.5 37.25 C-19.16 37.25 -19.82 37.25 -20.5 37.25 C-22.81 31.31 -25.12 25.37 -27.5 19.25 C-26.84 18.92 -26.18 18.59 -25.5 18.25 C-23.19 23.86 -20.88 29.47 -18.5 35.25 C-14.55539457 26.85180779 -11.04738822 18.31532568 -7.62329102 9.69287109 C-7.24873779 8.76168457 -6.87418457 7.83049805 -6.48828125 6.87109375 C-6.15352783 6.0298999 -5.81877441 5.18870605 -5.47387695 4.32202148 C-4.09340192 1.38492155 -3.29284277 0.32928428 0 0 Z " fill="#141414" transform="translate(319.5,48.75)"/>
<path d="M0 0 C2.375 -0.125 2.375 -0.125 5 0 C7.42386345 2.42386345 7.25210208 3.01061412 7.25878906 6.32617188 C7.26509338 7.22049927 7.27139771 8.11482666 7.27789307 9.03625488 C7.2738446 10.00397827 7.26979614 10.97170166 7.265625 11.96875 C7.26753845 12.95999878 7.2694519 13.95124756 7.27142334 14.97253418 C7.27278585 17.07072198 7.26908482 19.16891819 7.26074219 21.26708984 C7.25004371 24.48684546 7.26063536 27.70604308 7.2734375 30.92578125 C7.27211592 32.96093874 7.26955355 34.99609588 7.265625 37.03125 C7.26967346 37.99897339 7.27372192 38.96669678 7.27789307 39.96374512 C7.27158875 40.85807251 7.26528442 41.7523999 7.25878906 42.67382812 C7.25640228 43.85724792 7.25640228 43.85724792 7.25396729 45.0645752 C7 47 7 47 5 49 C2.5 49.3125 2.5 49.3125 0 49 C-0.66 48.01 -1.32 47.02 -2 46 C-1.01 45.505 -1.01 45.505 0 45 C0.33 45.66 0.66 46.32 1 47 C1.99 47 2.98 47 4 47 C4 32.48 4 17.96 4 3 C2.35 3 0.7 3 -1 3 C-0.67 2.01 -0.34 1.02 0 0 Z " fill="#222222" transform="translate(335,49)"/>
<path d="M0 0 C5.26153229 0.37582374 8.72366321 2.06525907 13 5 C14.125 7 14.125 7 14 9 C12.5625 11.25 12.5625 11.25 11 13 C6.61110675 12.33501617 3.0188515 10.81242323 -1 9 C-1 8.34 -1 7.68 -1 7 C-0.01 6.34 0.98 5.68 2 5 C2 4.01 2 3.02 2 2 C1.01 1.67 0.02 1.34 -1 1 C-0.67 0.67 -0.34 0.34 0 0 Z " fill="#262626" transform="translate(203,49)"/>
<path d="M0 0 C1.65 0 3.3 0 5 0 C5 0.66 5 1.32 5 2 C9.62 2 14.24 2 19 2 C19 6 19 6 18 9 C15.77027727 8.88534579 13.54121247 8.75785234 11.3125 8.625 C10.07113281 8.55539063 8.82976562 8.48578125 7.55078125 8.4140625 C4.30682228 8.03577906 1.93432815 7.38020024 -1 6 C-1 2 -1 2 0 0 Z " fill="#2A2A2A" transform="translate(188,89)"/>
<path d="M0 0 C0.33 0 0.66 0 1 0 C1.2434302 4.1432891 1.4580146 8.28681457 1.64697266 12.43286133 C1.71507042 13.84048413 1.79078461 15.24776135 1.87451172 16.65454102 C2.72530365 31.11287857 2.72530365 31.11287857 -2 37 C-5.2610211 40.3734701 -8.46623732 40.41229002 -13 41 C-13.66 41.66 -14.32 42.32 -15 43 C-16.32 41.02 -17.64 39.04 -19 37 C-18.18015625 37.02320313 -17.3603125 37.04640625 -16.515625 37.0703125 C-15.43796875 37.08835938 -14.3603125 37.10640625 -13.25 37.125 C-12.18265625 37.14820313 -11.1153125 37.17140625 -10.015625 37.1953125 C-7.00266233 37.00017243 -5.43632274 36.74493385 -3 35 C-0.61961438 31.41707405 -0.6897675 28.05054516 -0.5859375 23.828125 C-0.56657135 23.1457074 -0.5472052 22.46328979 -0.5272522 21.76019287 C-0.46768902 19.59025392 -0.42116554 17.42026123 -0.375 15.25 C-0.33679869 13.77471703 -0.2977457 12.29945585 -0.2578125 10.82421875 C-0.16200765 7.21634582 -0.07789084 3.60830917 0 0 Z " fill="#1C1C1C" transform="translate(261,52)"/>
<path d="M0 0 C6.48252688 -0.36693548 6.48252688 -0.36693548 8.71875 1.21875 C10.3746715 3.52088476 10.3094704 4.88218083 10.1875 7.6875 C10.16042969 8.49574219 10.13335937 9.30398437 10.10546875 10.13671875 C10.07066406 10.75160156 10.03585938 11.36648437 10 12 C10.66 12 11.32 12 12 12 C11.67 12.99 11.34 13.98 11 15 C10.34 15 9.68 15 9 15 C9.061875 15.7425 9.12375 16.485 9.1875 17.25 C8.96616995 20.49617413 7.98763075 21.51546156 6 24 C6 24.99 6 25.98 6 27 C5.401875 26.67 4.80375 26.34 4.1875 26 C1.94613529 24.79212012 1.94613529 24.79212012 -1 25 C-0.51789063 24.49210937 -0.03578125 23.98421875 0.4609375 23.4609375 C5.28413135 18.20464052 7.76456118 14.53158234 8.25 7.25 C8.34799261 3.91413169 8.34799261 3.91413169 6 2 C2.91652174 1.83318891 2.91652174 1.83318891 0 2 C0 1.34 0 0.68 0 0 Z " fill="#1CAA50" transform="translate(89,93)"/>
<path d="M0 0 C0.33 0.99 0.66 1.98 1 3 C0.67 3.66 0.34 4.32 0 5 C1.98 5.66 3.96 6.32 6 7 C6 7.33 6 7.66 6 8 C-3.405 8.495 -3.405 8.495 -13 9 C-12.01 8.01 -11.02 7.02 -10 6 C-11.32 5.67 -12.64 5.34 -14 5 C-14 4.34 -14 3.68 -14 3 C-12.73542969 3.05220703 -12.73542969 3.05220703 -11.4453125 3.10546875 C-9.80175781 3.14607422 -9.80175781 3.14607422 -8.125 3.1875 C-7.03445312 3.22230469 -5.94390625 3.25710937 -4.8203125 3.29296875 C-3.42425781 3.14794922 -3.42425781 3.14794922 -2 3 C-1.34 2.01 -0.68 1.02 0 0 Z " fill="#19A94E" transform="translate(79,68)"/>
<path d="M0 0 C-1.79036458 0.94401042 -3.58072917 1.88802083 -5.37109375 2.83203125 C-7.32267987 3.99019799 -7.32267987 3.99019799 -8 7 C-8.969375 7.474375 -9.93875 7.94875 -10.9375 8.4375 C-14.20200441 10.10306347 -14.76498923 10.70663795 -16 14 C-16.66 14.99 -17.32 15.98 -18 17 C-19 15 -19 15 -18.46875 13.265625 C-15.30190817 6.67655087 -8.31142504 -2.96836609 0 0 Z " fill="#181818" transform="translate(192,51)"/>
<path d="M0 0 C0.66 0.33 1.32 0.66 2 1 C1.34 1.66 0.68 2.32 0 3 C-1.67456182 7.09337334 -2.6568555 10.58968452 -2 15 C0.46143568 17.9271127 2.82124178 19.88082786 6 22 C2.61576008 21.70992229 1.00077 21.0005775 -1.75 18.9375 C-4.54071624 15.29406491 -5.33022075 12.56061626 -5 8 C-3.69242902 4.63767462 -2.54050545 2.54050545 0 0 Z " fill="#249E51" transform="translate(66,89)"/>
<path d="M0 0 C2.375 0.1875 2.375 0.1875 5 1 C6.5 3.3125 6.5 3.3125 7 6 C5.625 8.3125 5.625 8.3125 4 10 C-0.38889325 9.33501617 -3.9811485 7.81242323 -8 6 C-8 5.34 -8 4.68 -8 4 C-4.62537285 4.54723683 -2.91765 5.0549 0 7 C1.32 7 2.64 7 4 7 C3.43628586 3.73045798 2.50037734 2.17424117 0 0 Z " fill="#141414" transform="translate(210,52)"/>
<path d="M0 0 C3.62493334 -0.05787784 7.24974857 -0.0935542 10.875 -0.125 C11.90753906 -0.14175781 12.94007812 -0.15851562 14.00390625 -0.17578125 C14.99003906 -0.18222656 15.97617188 -0.18867188 16.9921875 -0.1953125 C18.35899658 -0.21102295 18.35899658 -0.21102295 19.75341797 -0.22705078 C22 0 22 0 24 2 C24 2.66 24 3.32 24 4 C22.741875 3.649375 21.48375 3.29875 20.1875 2.9375 C12.68876761 1.26980084 5.1134395 2.11617318 -2 5 C-2 4.34 -2 3.68 -2 3 C-1.34 2.67 -0.68 2.34 0 2 C0 1.34 0 0.68 0 0 Z " fill="#22A755" transform="translate(62,24)"/>
<path d="M0 0 C0.99 0.33 1.98 0.66 3 1 C1.6045933 3.79081339 -0.01419041 4.03903006 -2.875 5.1875 C-3.75929688 5.55230469 -4.64359375 5.91710937 -5.5546875 6.29296875 C-8 7 -8 7 -11 6 C-10.360625 5.71125 -9.72125 5.4225 -9.0625 5.125 C-6.84793921 4.17176549 -6.84793921 4.17176549 -6 2 C-4.0625 1.4375 -4.0625 1.4375 -2 1 C-1.34 0.67 -0.68 0.34 0 0 Z " fill="#18A850" transform="translate(106,138)"/>
<path d="M0 0 C0.28875 0.639375 0.5775 1.27875 0.875 1.9375 C1.82823451 4.15206079 1.82823451 4.15206079 4 5 C4.4140625 7.72265625 4.4140625 7.72265625 4.625 11.0625 C4.69976563 12.16722656 4.77453125 13.27195312 4.8515625 14.41015625 C4.90054687 15.26480469 4.94953125 16.11945313 5 17 C2.71636622 14.71636622 2.2847151 13.25204532 1.375 10.1875 C1.11460938 9.33542969 0.85421875 8.48335937 0.5859375 7.60546875 C-0.0044509 4.98020834 -0.10588413 2.68079363 0 0 Z " fill="#1FA552" transform="translate(1,86)"/>
<path d="M0 0 C0.85722656 0.08378906 1.71445313 0.16757813 2.59765625 0.25390625 C8.59931736 0.78843976 14.08421487 1.23818759 20 0 C19.67 0.99 19.34 1.98 19 3 C12.565 3.495 12.565 3.495 6 4 C6 3.34 6 2.68 6 2 C4.02 2 2.04 2 0 2 C0 1.34 0 0.68 0 0 Z " fill="#21A754" transform="translate(64,121)"/>
<path d="M0 0 C3.21852831 0.63065757 5.50801069 1.78020695 8.25 3.5625 C8.95640625 4.01753906 9.6628125 4.47257813 10.390625 4.94140625 C11.18726562 5.46541016 11.18726562 5.46541016 12 6 C11.01 6.495 11.01 6.495 10 7 C9.360625 6.67 8.72125 6.34 8.0625 6 C5.8881755 4.64925728 5.8881755 4.64925728 3 6 C2.67 4.68 2.34 3.36 2 2 C1.34 2 0.68 2 0 2 C0 1.34 0 0.68 0 0 Z " fill="#1CA850" transform="translate(105,7)"/>
<path d="M0 0 C-3.08809695 1.76462683 -4.23312136 2 -8 2 C-8.33 2.99 -8.66 3.98 -9 5 C-11.64 5 -14.28 5 -17 5 C-14.71636622 2.71636622 -13.25204532 2.2847151 -10.1875 1.375 C-9.33542969 1.11460938 -8.48335937 0.85421875 -7.60546875 0.5859375 C-4.98020834 -0.0044509 -2.68079363 -0.10588413 0 0 Z " fill="#23A652" transform="translate(62,1)"/>
<path d="M0 0 C2.64 0 5.28 0 8 0 C8 0.66 8 1.32 8 2 C9.98 2 11.96 2 14 2 C14.33 2.66 14.66 3.32 15 4 C9.72684667 3.5547115 4.98229776 2.91626837 0 1 C0 0.67 0 0.34 0 0 Z " fill="#21A552" transform="translate(47,143)"/>
<path d="M0 0 C1.32 0.99 2.64 1.98 4 3 C3.19185349 4.33597652 2.37836819 5.668725 1.5625 7 C0.88380859 8.11375 0.88380859 8.11375 0.19140625 9.25 C-0.20175781 9.8275 -0.59492187 10.405 -1 11 C-1.33 11 -1.66 11 -2 11 C-2 9.02 -2 7.04 -2 5 C-1.34 5 -0.68 5 0 5 C-0.2784375 4.0409375 -0.2784375 4.0409375 -0.5625 3.0625 C-0.7790625 2.0415625 -0.7790625 2.0415625 -1 1 C-0.67 0.67 -0.34 0.34 0 0 Z " fill="#18AC4B" transform="translate(53,80)"/>
<path d="M0 0 C0.33 1.32 0.66 2.64 1 4 C2.65 4.33 4.3 4.66 6 5 C6 5.33 6 5.66 6 6 C1.32538149 6.32613618 -1.16674383 5.70582788 -5 3 C-4.360625 2.690625 -3.72125 2.38125 -3.0625 2.0625 C-1.06389179 1.1654837 -1.06389179 1.1654837 0 0 Z " fill="#1EA64F" transform="translate(70,55)"/>
<path d="M0 0 C0.33 0.66 0.66 1.32 1 2 C-3.62 2 -8.24 2 -13 2 C-12 0 -12 0 -10.4375 -0.6875 C-6.7687971 -1.15784653 -3.64631183 -0.65753164 0 0 Z " fill="#1BA54D" transform="translate(80,37)"/>
<path d="M0 0 C0.66 0.33 1.32 0.66 2 1 C1.34 1.66 0.68 2.32 0 3 C-0.59834554 4.52056618 -1.13506656 6.06612088 -1.625 7.625 C-1.88539062 8.44226563 -2.14578125 9.25953125 -2.4140625 10.1015625 C-2.60742188 10.72804688 -2.80078125 11.35453125 -3 12 C-3.33 12 -3.66 12 -4 12 C-4.33292585 7.75519536 -4.43885872 5.64457375 -2 2.0625 C-1.34 1.381875 -0.68 0.70125 0 0 Z " fill="#1CA64C" transform="translate(66,89)"/>
<path d="M0 0 C0 3 0 3 -2.5 5.6875 C-3.325 6.450625 -4.15 7.21375 -5 8 C-5.66 7.67 -6.32 7.34 -7 7 C-7 6.34 -7 5.68 -7 5 C-6.01 5 -5.02 5 -4 5 C-4 3.68 -4 2.36 -4 1 C-2.68 0.67 -1.36 0.34 0 0 Z " fill="#1CA351" transform="translate(129,122)"/>
<path d="M0 0 C3.05936637 3.75467691 5 7.08113061 5 12 C4.34 12 3.68 12 3 12 C2.49166409 10.75336669 1.99368855 9.50250613 1.5 8.25 C1.2215625 7.55390625 0.943125 6.8578125 0.65625 6.140625 C0 4 0 4 0 0 Z " fill="#1FA450" transform="translate(140,41)"/>
<path d="M0 0 C0.33 0 0.66 0 1 0 C1 2.31 1 4.62 1 7 C0.34 7 -0.32 7 -1 7 C-1 7.99 -1 8.98 -1 10 C-1.66 10 -2.32 10 -3 10 C-2.49287967 6.28111761 -1.88391785 3.26545761 0 0 Z " fill="#1CA64F" transform="translate(6,43)"/>
<path d="M0 0 C0.75 1.5625 0.75 1.5625 1 4 C-0.13084437 6.50286409 -1.52139516 8.67007722 -3 11 C-3.66 11 -4.32 11 -5 11 C-5 10.01 -5 9.02 -5 8 C-4.01 7.34 -3.02 6.68 -2 6 C-0.78715124 2.94570927 -0.78715124 2.94570927 0 0 Z " fill="#249D52" transform="translate(86,98)"/>
<path d="M0 0 C0.33 0 0.66 0 1 0 C3.21538462 7.38461538 3.21538462 7.38461538 2.125 10.5 C1.75375 10.995 1.3825 11.49 1 12 C-0.47075246 7.58774263 -1.36884358 4.51718381 0 0 Z " fill="#131313" transform="translate(173,71)"/>
<path d="M0 0 C2.32472205 2.85306797 3.7508258 5.54074837 5 9 C3.35 9 1.7 9 0 9 C0.185625 8.443125 0.37125 7.88625 0.5625 7.3125 C1.07551165 4.600867 0.6640724 2.65628961 0 0 Z " fill="#1BA64F" transform="translate(50,55)"/>
<path d="M0 0 C0.99 0 1.98 0 3 0 C3.33 0.99 3.66 1.98 4 3 C1.525 4.485 1.525 4.485 -1 6 C-0.67 4.02 -0.34 2.04 0 0 Z " fill="#14AB4C" transform="translate(116,130)"/>
<path d="M0 0 C0.66 0.33 1.32 0.66 2 1 C0.75023244 4.65316671 0.32901247 5.78065836 -3 8 C-2.67 6.02 -2.34 4.04 -2 2 C-1.34 2 -0.68 2 0 2 C0 1.34 0 0.68 0 0 Z " fill="#16A44C" transform="translate(134,113)"/>
<path d="M0 0 C0 0.66 0 1.32 0 2 C-2.31 2.66 -4.62 3.32 -7 4 C-7.66 3.01 -8.32 2.02 -9 1 C-5.846632 0.29925156 -3.27275026 0 0 0 Z " fill="#212121" transform="translate(200,48)"/>
<path d="M0 0 C0.66 1.32 1.32 2.64 2 4 C0.625 5.5 0.625 5.5 -1 7 C-1.66 7 -2.32 7 -3 7 C-1.125 2.25 -1.125 2.25 0 0 Z " fill="#1AAA4E" transform="translate(12,32)"/>
</svg>
